<svg xmlns="http://www.w3.org/2000/svg" version="1.1" xmlns:xlink="http://www.w3.org/1999/xlink" xmlns:svgjs="http://svgjs.dev/svgjs" width="1000" height="411" viewBox="0 0 1000 411"><g transform="matrix(1,0,0,1,-0.6060606060606233,-0.6163511117885037)"><svg viewBox="0 0 396 163" data-background-color="#ffffff" preserveAspectRatio="xMidYMid meet" height="411" width="1000" xmlns="http://www.w3.org/2000/svg" xmlns:xlink="http://www.w3.org/1999/xlink"><g id="tight-bounds" transform="matrix(1,0,0,1,0.2400000000000091,0.24444095187719483)"><svg viewBox="0 0 395.52 162.5111111111111" height="162.5111111111111" width="395.52"><g><svg viewBox="0 0 395.52 162.5111111111111" height="162.5111111111111" width="395.52"><g><svg viewBox="0 0 395.52 162.5111111111111" height="162.5111111111111" width="395.52"><g id="textblocktransform"><svg viewBox="0 0 395.52 162.5111111111111" height="162.5111111111111" width="395.52" id="textblock"><g><svg viewBox="0 0 395.52 162.5111111111111" height="162.5111111111111" width="395.52"><g transform="matrix(1,0,0,1,0,0)"><svg width="395.52" viewBox="3 -34.900001525878906 86.4000015258789 35.5" height="162.5111111111111" data-palette-color="#e6b17e"><path d="M3 0L3-34.3 9.4-34.3 9.4-20.4 20.2-20.4 20.2-34.3 26.6-34.3 26.6 0 20.2 0 20.2-14.7 9.4-14.7 9.4 0 3 0ZM45.55 0.6Q38.75 0.6 35.02-3.83 31.3-8.25 31.3-17.15L31.3-17.15Q31.3-26.05 35.02-30.48 38.75-34.9 45.55-34.9L45.55-34.9Q52.35-34.9 56.07-30.48 59.8-26.05 59.8-17.15L59.8-17.15Q59.8-8.25 56.07-3.83 52.35 0.6 45.55 0.6L45.55 0.6ZM45.55-4.9Q49.3-4.9 51.25-7.78 53.2-10.65 53.2-15.9L53.2-15.9 53.2-18.4Q53.2-23.65 51.25-26.53 49.3-29.4 45.55-29.4L45.55-29.4Q41.8-29.4 39.85-26.53 37.9-23.65 37.9-18.4L37.9-18.4 37.9-15.9Q37.9-10.65 39.85-7.78 41.8-4.9 45.55-4.9L45.55-4.9ZM64.5 0L64.5-34.3 79.25-34.3Q81.95-34.3 84.07-33.23 86.2-32.15 87.4-30.23 88.59-28.3 88.59-25.8L88.59-25.8Q88.59-22.95 87.12-20.88 85.65-18.8 83.34-18L83.34-18 83.34-17.8Q86-17 87.7-14.7 89.4-12.4 89.4-9.2L89.4-9.2Q89.4-6.4 88.02-4.33 86.65-2.25 84.34-1.13 82.05 0 79.25 0L79.25 0 64.5 0ZM70.9-20.4L77.5-20.4Q79.7-20.4 80.87-21.6 82.05-22.8 82.05-24.65L82.05-24.65Q82.05-26.55 80.9-27.58 79.75-28.6 77.8-28.6L77.8-28.6 70.9-28.6 70.9-20.4ZM70.9-5.7L78.2-5.7Q80.25-5.7 81.55-6.83 82.84-7.95 82.84-10L82.84-10Q82.84-12.1 81.57-13.43 80.3-14.75 77.9-14.75L77.9-14.75 70.9-14.75 70.9-5.7Z" opacity="1" transform="matrix(1,0,0,1,0,0)" fill="#e6b17e" class="undefined-text-0" data-fill-palette-color="primary" id="text-0"></path></svg></g></svg></g></svg></g></svg></g></svg></g><defs></defs></svg><rect width="395.52" height="162.5111111111111" fill="none" stroke="none" visibility="hidden"></rect></g></svg></g></svg>